<svg width="1809" height="479" viewBox="0 0 1809 479" fill="none" xmlns="http://www.w3.org/2000/svg">
<path d="M234.7 479C159.1 479 101.233 458.7 61.1 418.1C20.9667 377.033 0.9 321.267 0.9 250.8C0.9 176.133 20.2667 118.033 59 76.5C98.2 34.9666 156.533 14.2 234 14.2C261.067 14.2 285.333 16.3 306.8 20.5C328.733 24.2333 349.267 29.6 368.4 36.6V119.2C328.733 102.867 286.267 94.7 241 94.7C189.667 94.7 152.8 107.533 130.4 133.2C108 158.867 96.8 198.067 96.8 250.8C96.8 349.733 145.333 399.2 242.4 399.2C264.333 399.2 286.033 397.333 307.5 393.6C328.967 389.4 349.5 383.333 369.1 375.4V458.7C349.967 464.767 329.433 469.667 307.5 473.4C286.033 477.133 261.767 479 234.7 479ZM538.927 479C517.927 479 498.327 475.267 480.127 467.8C462.393 459.867 447.927 448.433 436.727 433.5C425.993 418.1 420.627 398.967 420.627 376.1C420.627 343.433 432.06 317.3 454.927 297.7C478.26 278.1 512.56 268.3 557.827 268.3H655.827V259.2C655.827 238.667 649.993 224.2 638.327 215.8C627.127 207.4 604.26 203.2 569.727 203.2C531.927 203.2 495.527 209.033 460.527 220.7V154.2C475.927 148.133 494.593 143.233 516.527 139.5C538.927 135.3 563.193 133.2 589.327 133.2C639.26 133.2 677.76 143.467 704.827 164C732.36 184.067 746.127 216.5 746.127 261.3V472H664.227L659.327 441.9C646.26 453.567 630.16 462.667 611.027 469.2C591.893 475.733 567.86 479 538.927 479ZM564.827 416.7C585.827 416.7 604.027 413.2 619.427 406.2C634.827 399.2 646.96 390.333 655.827 379.6V327.1H559.927C523.06 327.1 504.627 342.267 504.627 372.6C504.627 402 524.693 416.7 564.827 416.7ZM822.224 472V140.2H909.724L913.924 174.5C928.858 165.167 947.291 156.767 969.224 149.3C991.624 141.367 1013.56 136 1035.02 133.2V204.6C1022.42 206.467 1008.66 209.267 993.724 213C978.791 216.733 964.558 220.933 951.024 225.6C937.491 230.267 926.058 235.167 916.724 240.3V472H822.224ZM1175.76 479C1143.56 479 1119.99 471.533 1105.06 456.6C1090.59 441.667 1083.36 417.867 1083.36 385.2V0.199983H1177.86V377.5C1177.86 389.167 1180.19 397.333 1184.86 402C1189.52 406.2 1196.29 408.3 1205.16 408.3C1217.29 408.3 1228.26 406.667 1238.06 403.4V468.5C1220.32 475.5 1199.56 479 1175.76 479ZM1290.34 79.3V5.09996H1393.24V79.3H1290.34ZM1298.04 472V210.2H1248.34L1256.74 140.2H1392.54V472H1298.04ZM1451.31 472L1578.71 303.3L1456.21 140.2H1558.41L1629.81 236.8L1701.21 140.2H1803.41L1681.61 303.3L1808.31 472H1705.41L1629.81 370.5L1554.21 472H1451.31Z" fill="white"/>
</svg>
